<svg width="15" height="16" viewBox="0 0 15 16" fill="none" xmlns="http://www.w3.org/2000/svg">
<path d="M6.00025 0.277333C6.09787 0.395951 6.15767 0.541116 6.17193 0.694073C6.18619 0.84703 6.15426 1.00075 6.08025 1.13537C5.50209 2.19689 5.20015 3.38676 5.20222 4.59551C5.20222 8.61668 8.48035 11.8728 12.5205 11.8728C13.0475 11.8728 13.5606 11.8178 14.0536 11.7128C14.2047 11.6801 14.3621 11.6926 14.5062 11.7488C14.6503 11.805 14.7746 11.9024 14.8636 12.0288C14.9576 12.1603 15.0055 12.3191 14.9999 12.4806C14.9943 12.6421 14.9355 12.7972 14.8326 12.9219C14.0483 13.8853 13.0588 14.6616 11.9363 15.1941C10.8139 15.7267 9.58672 16.002 8.34435 16C3.73416 16 0 12.2858 0 7.70964C0 4.2655 2.11409 1.31138 5.12421 0.0593244C5.27416 -0.00404638 5.44062 -0.0170529 5.59858 0.0222585C5.75655 0.06157 5.8975 0.151077 6.00025 0.277333Z" fill="black"/>
</svg>
